<svg width="1920" height="844" viewBox="0 0 1920 844" fill="none" xmlns="http://www.w3.org/2000/svg">
<path d="M191 410.356V193H264.228V353.533H362.279V410.356H191Z" fill="#093A3E"/>
<path d="M381.347 410.356L476.294 193H548.281L643.229 410.356H567.519L497.394 227.777H525.94L455.816 410.356H381.347ZM437.819 372.474L456.436 319.687H556.349L574.966 372.474H437.819Z" fill="#093A3E"/>
<path d="M677.436 410.356V315.03L694.191 358.812L595.52 193H672.781L739.493 306.336H694.501L761.834 193H832.579L734.528 358.812L750.663 315.03V410.356H677.436Z" fill="#093A3E"/>
<path d="M916.655 273.732H1013.46V326.519H916.655V273.732ZM921.619 355.085H1030.22V410.356H849.633V193H1026.19V248.271H921.619V355.085Z" fill="#093A3E"/>
<path d="M1058.41 410.356V193H1162.98C1183.25 193 1200.73 196.312 1215.42 202.936C1230.31 209.56 1241.79 219.083 1249.86 231.503C1257.92 243.716 1261.96 258.207 1261.96 274.974C1261.96 291.742 1257.92 306.232 1249.86 318.445C1241.79 330.452 1230.31 339.664 1215.42 346.081C1200.73 352.498 1183.25 355.706 1162.98 355.706H1099.06L1131.64 325.587V410.356H1058.41ZM1188.42 410.356L1135.05 331.176H1212.62L1266.61 410.356H1188.42ZM1131.64 333.66L1099.06 300.436H1158.32C1168.46 300.436 1175.91 298.159 1180.66 293.605C1185.63 289.051 1188.11 282.84 1188.11 274.974C1188.11 267.108 1185.63 260.898 1180.66 256.344C1175.91 251.79 1168.46 249.513 1158.32 249.513H1099.06L1131.64 216.288V333.66Z" fill="#093A3E"/>
<path d="M1356.63 273.732H1453.44V326.519H1356.63V273.732ZM1361.6 355.085H1470.2V410.356H1289.61V193H1466.16V248.271H1361.6V355.085Z" fill="#093A3E"/>
<path d="M1498.39 410.356V193H1605.44C1629.64 193 1650.95 197.451 1669.36 206.352C1687.77 215.046 1702.14 227.466 1712.49 243.613C1722.83 259.759 1728 279.011 1728 301.367C1728 323.931 1722.83 343.39 1712.49 359.743C1702.14 375.89 1687.77 388.413 1669.36 397.315C1650.95 406.009 1629.64 410.356 1605.44 410.356H1498.39ZM1571.62 353.222H1602.33C1612.68 353.222 1621.67 351.256 1629.33 347.323C1637.19 343.39 1643.29 337.593 1647.64 329.934C1651.98 322.068 1654.15 312.546 1654.15 301.367C1654.15 290.396 1651.98 281.081 1647.64 273.422C1643.29 265.763 1637.19 259.966 1629.33 256.033C1621.67 252.1 1612.68 250.134 1602.33 250.134H1571.62V353.222Z" fill="#093A3E"/>
<path d="M191 648.305V459.628H226.295V618.655H325.665V648.305H191Z" fill="#093A3E"/>
<path d="M701.142 648.305L786.665 459.628H821.417L907.212 648.305H870.288L796.711 478.226H810.829L737.523 648.305H701.142ZM740.51 604.639L750.013 577.146H852.64L862.143 604.639H740.51Z" fill="#093A3E"/>
<path d="M1007.4 648.305V459.628H1090.48C1111.12 459.628 1129.22 463.581 1144.78 471.487C1160.35 479.394 1172.47 490.355 1181.16 504.371C1189.85 518.387 1194.19 534.919 1194.19 553.966C1194.19 572.834 1189.85 589.365 1181.16 603.561C1172.47 617.577 1160.35 628.538 1144.78 636.445C1129.22 644.351 1111.12 648.305 1090.48 648.305H1007.4ZM1042.7 618.655H1088.85C1103.15 618.655 1115.46 615.96 1125.78 610.569C1136.27 605.178 1144.33 597.631 1149.94 587.928C1155.73 578.224 1158.63 566.904 1158.63 553.966C1158.63 540.848 1155.73 529.528 1149.94 520.004C1144.33 510.301 1136.27 502.754 1125.78 497.363C1115.46 491.972 1103.15 489.277 1088.85 489.277H1042.7V618.655Z" fill="#093A3E"/>
<path d="M1340.31 538.063H1434.79V566.904H1340.31V538.063ZM1343.02 618.925H1450.27V648.305H1307.73V459.628H1446.47V489.007H1343.02V618.925Z" fill="#093A3E"/>
<path d="M1565.63 648.305V459.628H1643.83C1660.66 459.628 1675.05 462.323 1687 467.714C1699.12 473.104 1708.44 480.831 1714.96 490.894C1721.48 500.957 1724.73 512.906 1724.73 526.743C1724.73 540.579 1721.48 552.528 1714.96 562.591C1708.44 572.474 1699.12 580.111 1687 585.502C1675.05 590.713 1660.66 593.319 1643.83 593.319H1585.18L1600.93 577.416V648.305H1565.63ZM1689.98 648.305L1641.93 579.842H1679.66L1727.99 648.305H1689.98ZM1600.93 581.189L1585.18 564.478H1642.2C1657.76 564.478 1669.44 561.154 1677.22 554.505C1685.19 547.856 1689.17 538.602 1689.17 526.743C1689.17 514.703 1685.19 505.449 1677.22 498.98C1669.44 492.511 1657.76 489.277 1642.2 489.277H1585.18L1600.93 472.026V581.189Z" fill="#093A3E"/>
<path d="M515.155 651C529.817 651 543.301 648.574 555.609 643.722L541.491 615.421C533.346 618.655 524.477 620.273 514.884 620.273L515.155 651Z" fill="#093A3E"/>
<path d="M441.579 623.507C450.81 632.132 461.67 638.871 474.159 643.722L488.277 615.421C480.132 612.186 473.073 607.604 467.1 601.674L441.579 623.507Z" fill="#093A3E"/>
<path fill-rule="evenodd" clip-rule="evenodd" d="M562.668 601.674L588.189 623.507C597.42 614.882 604.57 604.639 609.638 592.78L576.515 580.65C573.257 588.557 568.641 595.565 562.668 601.674ZM609.638 515.422C614.706 527.102 617.24 539.95 617.24 553.966H581.673C581.673 544.263 579.954 535.458 576.515 527.551C573.257 519.465 568.641 512.457 562.668 506.527C556.695 500.418 549.636 495.746 541.491 492.511C533.346 489.277 524.477 487.66 514.884 487.66C505.291 487.66 496.422 489.277 488.277 492.511C480.313 495.746 473.254 500.418 467.1 506.527L441.579 484.695C450.81 475.89 461.67 469.061 474.159 464.21C486.648 459.358 500.223 456.932 514.884 456.932C529.726 456.932 543.301 459.358 555.609 464.21C568.098 469.061 578.958 475.89 588.189 484.695C597.42 493.32 604.57 503.562 609.638 515.422Z" fill="#093A3E"/>
<path d="M609.638 592.78C614.706 580.92 617.24 567.982 617.24 553.966H581.673C581.673 563.669 579.954 572.564 576.515 580.65L609.638 592.78Z" fill="#093A3E"/>
<path d="M412.528 553.966C412.528 567.982 415.062 580.92 420.13 592.78L452.982 580.381C449.724 572.295 448.095 563.49 448.095 553.966H412.528Z" fill="#093A3E"/>
</svg>
